<svg xmlns="http://www.w3.org/2000/svg">
<!-- html-deck icon sprite. 24x24 grid, stroke icons: stroke/fill come from the .i class (currentColor). -->
<!-- status & signals -->
<symbol id="i-check" viewBox="0 0 24 24"><path d="M20 6 9 17l-5-5"/></symbol>
<symbol id="i-x" viewBox="0 0 24 24"><path d="M18 6 6 18M6 6l12 12"/></symbol>
<symbol id="i-plus" viewBox="0 0 24 24"><path d="M12 5v14M5 12h14"/></symbol>
<symbol id="i-minus" viewBox="0 0 24 24"><path d="M5 12h14"/></symbol>
<symbol id="i-check-circle" viewBox="0 0 24 24"><circle cx="12" cy="12" r="9"/><path d="m8 12.5 2.7 2.7L16 9.5"/></symbol>
<symbol id="i-x-circle" viewBox="0 0 24 24"><circle cx="12" cy="12" r="9"/><path d="m15 9-6 6M9 9l6 6"/></symbol>
<symbol id="i-alert" viewBox="0 0 24 24"><path d="M10.3 4 2.6 17.5A2 2 0 0 0 4.3 20.5h15.4a2 2 0 0 0 1.7-3L13.7 4a2 2 0 0 0-3.4 0z"/><path d="M12 9.5v4M12 17h.01"/></symbol>
<symbol id="i-info" viewBox="0 0 24 24"><circle cx="12" cy="12" r="9"/><path d="M12 11v5.5M12 7.8h.01"/></symbol>
<symbol id="i-help" viewBox="0 0 24 24"><circle cx="12" cy="12" r="9"/><path d="M9.5 9.3a2.6 2.6 0 0 1 5 .9c0 1.7-2.5 2.3-2.5 3.8M12 17.2h.01"/></symbol>
<symbol id="i-ban" viewBox="0 0 24 24"><circle cx="12" cy="12" r="9"/><path d="m5.7 5.7 12.6 12.6"/></symbol>
<symbol id="i-star" viewBox="0 0 24 24"><path d="m12 3 2.8 5.7 6.2.9-4.5 4.4 1.1 6.2L12 17.3l-5.6 2.9 1.1-6.2L3 9.6l6.2-.9L12 3z"/></symbol>
<symbol id="i-flag" viewBox="0 0 24 24"><path d="M5 21V4"/><path d="M5 4h12l-2.5 4.5L17 13H5"/></symbol>
<symbol id="i-bell" viewBox="0 0 24 24"><path d="M6 16v-5a6 6 0 0 1 12 0v5l2 2H4l2-2z"/><path d="M10 21h4"/></symbol>
<!-- arrows & trends -->
<symbol id="i-arrow-right" viewBox="0 0 24 24"><path d="M5 12h14M13 6l6 6-6 6"/></symbol>
<symbol id="i-arrow-left" viewBox="0 0 24 24"><path d="M19 12H5M11 6l-6 6 6 6"/></symbol>
<symbol id="i-arrow-up" viewBox="0 0 24 24"><path d="M12 19V5M6 11l6-6 6 6"/></symbol>
<symbol id="i-arrow-down" viewBox="0 0 24 24"><path d="M12 5v14M6 13l6 6 6-6"/></symbol>
<symbol id="i-arrow-up-right" viewBox="0 0 24 24"><path d="M7 17 17 7M8 7h9v9"/></symbol>
<symbol id="i-chevron-right" viewBox="0 0 24 24"><path d="m9 6 6 6-6 6"/></symbol>
<symbol id="i-trend-up" viewBox="0 0 24 24"><path d="m3 17 6-6 4 4 8-8"/><path d="M15 7h6v6"/></symbol>
<symbol id="i-trend-down" viewBox="0 0 24 24"><path d="m3 7 6 6 4-4 8 8"/><path d="M15 17h6v-6"/></symbol>
<symbol id="i-refresh" viewBox="0 0 24 24"><path d="M20 11A8 8 0 0 0 5.7 6.3L4 8"/><path d="M4 3v5h5"/><path d="M4 13a8 8 0 0 0 14.3 4.7L20 16"/><path d="M20 21v-5h-5"/></symbol>
<symbol id="i-route" viewBox="0 0 24 24"><circle cx="6" cy="19" r="2"/><circle cx="18" cy="5" r="2"/><path d="M8 19h8.5a3.5 3.5 0 0 0 0-7h-9a3.5 3.5 0 0 1 0-7H16"/></symbol>
<symbol id="i-upload" viewBox="0 0 24 24"><path d="M12 15V4M7 9l5-5 5 5"/><path d="M4 15v4a2 2 0 0 0 2 2h12a2 2 0 0 0 2-2v-4"/></symbol>
<symbol id="i-download" viewBox="0 0 24 24"><path d="M12 4v11M7 10l5 5 5-5"/><path d="M4 15v4a2 2 0 0 0 2 2h12a2 2 0 0 0 2-2v-4"/></symbol>
<symbol id="i-play" viewBox="0 0 24 24"><path d="M7 4.5v15a.8.8 0 0 0 1.2.7l12-7.5a.8.8 0 0 0 0-1.4l-12-7.5A.8.8 0 0 0 7 4.5z"/></symbol>
<!-- business & strategy -->
<symbol id="i-target" viewBox="0 0 24 24"><circle cx="12" cy="12" r="9"/><circle cx="12" cy="12" r="5"/><circle cx="12" cy="12" r="1"/></symbol>
<symbol id="i-trophy" viewBox="0 0 24 24"><path d="M8 4h8v5a4 4 0 0 1-8 0V4z"/><path d="M8 6H5a3 3 0 0 0 3 4.5M16 6h3a3 3 0 0 1-3 4.5"/><path d="M12 13v4M8 21h8M9.5 21l.5-4h4l.5 4"/></symbol>
<symbol id="i-award" viewBox="0 0 24 24"><circle cx="12" cy="9" r="6"/><path d="m8.5 13.9-1.5 7.1 5-3 5 3-1.5-7.1"/></symbol>
<symbol id="i-rocket" viewBox="0 0 24 24"><path d="M9.5 14.5 7 12c1.6-4.7 5.4-8.3 13-9-.7 7.6-4.3 11.4-9 13l-1.5-1.5z"/><path d="M7 12H3.5L6 8.5h4M12 17v3.5l3.5-2.5v-4"/><circle cx="15" cy="9" r="1.5"/><path d="M6.5 17.5 4 20"/></symbol>
<symbol id="i-lightbulb" viewBox="0 0 24 24"><path d="M9 18h6M10 21h4"/><path d="M12 3a6 6 0 0 0-3.9 10.6c.6.6.9 1.4.9 2.2V16h6v-.2c0-.8.3-1.6.9-2.2A6 6 0 0 0 12 3z"/></symbol>
<symbol id="i-dollar" viewBox="0 0 24 24"><circle cx="12" cy="12" r="9"/><path d="M15 9.3c-.5-.9-1.6-1.4-3-1.4-1.7 0-3 .8-3 2s1.3 1.6 3 2 3 .8 3 2-1.3 2-3 2c-1.4 0-2.5-.5-3-1.4M12 6.3v1.6M12 16.1v1.6"/></symbol>
<symbol id="i-percent" viewBox="0 0 24 24"><path d="M19 5 5 19"/><circle cx="6.5" cy="6.5" r="2.5"/><circle cx="17.5" cy="17.5" r="2.5"/></symbol>
<symbol id="i-briefcase" viewBox="0 0 24 24"><rect x="3" y="7" width="18" height="13" rx="2"/><path d="M9 7V5a1 1 0 0 1 1-1h4a1 1 0 0 1 1 1v2M3 13h18"/></symbol>
<symbol id="i-building" viewBox="0 0 24 24"><path d="M4 21V5a1 1 0 0 1 1-1h9a1 1 0 0 1 1 1v16M15 9h4a1 1 0 0 1 1 1v11M2 21h20"/><path d="M8 8h3M8 12h3M8 16h3"/></symbol>
<symbol id="i-users" viewBox="0 0 24 24"><circle cx="9" cy="8" r="3.5"/><path d="M2.5 20c0-3.6 2.9-6 6.5-6s6.5 2.4 6.5 6"/><path d="M16 4.6a3.5 3.5 0 0 1 0 6.8M18 14.3c2.1.8 3.5 2.9 3.5 5.7"/></symbol>
<symbol id="i-user" viewBox="0 0 24 24"><circle cx="12" cy="8" r="4"/><path d="M4 21c0-4.4 3.6-7 8-7s8 2.6 8 7"/></symbol>
<symbol id="i-scale" viewBox="0 0 24 24"><path d="M12 3v18M7 21h10M5 7h14"/><path d="M5 7 2 14a3 3 0 0 0 6 0L5 7zM19 7l-3 7a3 3 0 0 0 6 0l-3-7z"/></symbol>
<symbol id="i-compass" viewBox="0 0 24 24"><circle cx="12" cy="12" r="9"/><path d="m15.5 8.5-2 5-5 2 2-5 5-2z"/></symbol>
<symbol id="i-map-pin" viewBox="0 0 24 24"><path d="M12 21s-7-6-7-11a7 7 0 0 1 14 0c0 5-7 11-7 11z"/><circle cx="12" cy="10" r="2.5"/></symbol>
<symbol id="i-globe" viewBox="0 0 24 24"><circle cx="12" cy="12" r="9"/><path d="M3 12h18M12 3c2.4 2.5 3.7 5.5 3.7 9s-1.3 6.5-3.7 9c-2.4-2.5-3.7-5.5-3.7-9S9.6 5.5 12 3z"/></symbol>
<symbol id="i-leaf" viewBox="0 0 24 24"><path d="M5 20c-1-9 4-15 15-15 0 10-5 15-13.5 15H5z"/><path d="M5 20c2.5-4.5 6-7.5 10-9"/></symbol>
<symbol id="i-calendar" viewBox="0 0 24 24"><rect x="3" y="5" width="18" height="16" rx="2"/><path d="M3 10h18M8 3v4M16 3v4"/></symbol>
<symbol id="i-clock" viewBox="0 0 24 24"><circle cx="12" cy="12" r="9"/><path d="M12 7v5l3.5 2"/></symbol>
<symbol id="i-gauge" viewBox="0 0 24 24"><path d="M4.2 17.5a9 9 0 1 1 15.6 0"/><path d="m12 14 4-5"/><circle cx="12" cy="14" r="1.6"/></symbol>
<symbol id="i-chart-bar" viewBox="0 0 24 24"><path d="M3 3v18h18"/><path d="M8 17v-5M13 17V8M18 17v-8"/></symbol>
<symbol id="i-chart-line" viewBox="0 0 24 24"><path d="M3 3v18h18"/><path d="m7 15 4-4 3 3 6-6"/></symbol>
<symbol id="i-chart-pie" viewBox="0 0 24 24"><path d="M21 12A9 9 0 1 1 12 3v9h9z"/><path d="M15 3.5A9 9 0 0 1 20.5 9H15V3.5z"/></symbol>
<symbol id="i-mail" viewBox="0 0 24 24"><rect x="3" y="5" width="18" height="14" rx="2"/><path d="m3 7 9 6 9-6"/></symbol>
<symbol id="i-chat" viewBox="0 0 24 24"><path d="M21 12a8 8 0 0 1-11.6 7.1L4 20.5l1.3-4.8A8 8 0 1 1 21 12z"/></symbol>
<symbol id="i-tag" viewBox="0 0 24 24"><path d="M3 12V4a1 1 0 0 1 1-1h8l9 9-9 9-9-9z"/><circle cx="7.5" cy="7.5" r="1.5"/></symbol>
<!-- work & knowledge -->
<symbol id="i-search" viewBox="0 0 24 24"><circle cx="11" cy="11" r="7"/><path d="m20 20-4-4"/></symbol>
<symbol id="i-filter" viewBox="0 0 24 24"><path d="M3 4h18l-7 8v6l-4 2v-8L3 4z"/></symbol>
<symbol id="i-eye" viewBox="0 0 24 24"><path d="M2 12s3.5-7 10-7 10 7 10 7-3.5 7-10 7S2 12 2 12z"/><circle cx="12" cy="12" r="3"/></symbol>
<symbol id="i-list" viewBox="0 0 24 24"><path d="M9 6h12M9 12h12M9 18h12M4 6h.01M4 12h.01M4 18h.01"/></symbol>
<symbol id="i-grid" viewBox="0 0 24 24"><rect x="3" y="3" width="7" height="7" rx="1"/><rect x="14" y="3" width="7" height="7" rx="1"/><rect x="3" y="14" width="7" height="7" rx="1"/><rect x="14" y="14" width="7" height="7" rx="1"/></symbol>
<symbol id="i-layers" viewBox="0 0 24 24"><path d="m12 3 9 4.5-9 4.5-9-4.5L12 3z"/><path d="m3 12 9 4.5 9-4.5"/><path d="m3 16.5 9 4.5 9-4.5"/></symbol>
<symbol id="i-file" viewBox="0 0 24 24"><path d="M14 3H6a1 1 0 0 0-1 1v16a1 1 0 0 0 1 1h12a1 1 0 0 0 1-1V8l-5-5z"/><path d="M14 3v5h5"/></symbol>
<symbol id="i-file-text" viewBox="0 0 24 24"><path d="M14 3H6a1 1 0 0 0-1 1v16a1 1 0 0 0 1 1h12a1 1 0 0 0 1-1V8l-5-5z"/><path d="M14 3v5h5M9 13h6M9 17h6"/></symbol>
<symbol id="i-folder" viewBox="0 0 24 24"><path d="M3 6a1 1 0 0 1 1-1h5l2 2h9a1 1 0 0 1 1 1v11a1 1 0 0 1-1 1H4a1 1 0 0 1-1-1V6z"/></symbol>
<symbol id="i-clipboard-check" viewBox="0 0 24 24"><rect x="5" y="4" width="14" height="17" rx="2"/><path d="M9 3h6v3H9z"/><path d="m9 13 2 2 4-4"/></symbol>
<symbol id="i-book" viewBox="0 0 24 24"><path d="M4 19.5v-15A1.5 1.5 0 0 1 5.5 3H20v15H5.5A1.5 1.5 0 0 0 4 19.5z"/><path d="M4 19.5A1.5 1.5 0 0 0 5.5 21H20v-3"/></symbol>
<symbol id="i-workflow" viewBox="0 0 24 24"><rect x="3" y="3" width="7" height="6" rx="1"/><rect x="14" y="15" width="7" height="6" rx="1"/><path d="M6.5 9v4a2 2 0 0 0 2 2H14"/></symbol>
<symbol id="i-sliders" viewBox="0 0 24 24"><path d="M4 6h9M17 6h3M4 12h3M11 12h9M4 18h11M19 18h1"/><circle cx="15" cy="6" r="2"/><circle cx="9" cy="12" r="2"/><circle cx="17" cy="18" r="2"/></symbol>
<symbol id="i-gear" viewBox="0 0 24 24"><path d="M18.89 9.89 21.36 10.35 21.36 13.65 18.89 14.11 18.36 15.38 19.78 17.45 17.45 19.78 15.38 18.36 14.11 18.89 13.65 21.36 10.35 21.36 9.89 18.89 8.62 18.36 6.55 19.78 4.22 17.45 5.64 15.38 5.11 14.11 2.64 13.65 2.64 10.35 5.11 9.89 5.64 8.62 4.22 6.55 6.55 4.22 8.62 5.64 9.89 5.11 10.35 2.64 13.65 2.64 14.11 5.11 15.38 5.64 17.45 4.22 19.78 6.55 18.36 8.62Z"/><circle cx="12" cy="12" r="3"/></symbol>
<!-- technology -->
<symbol id="i-code" viewBox="0 0 24 24"><path d="m8 7-5 5 5 5M16 7l5 5-5 5M14 4l-4 16"/></symbol>
<symbol id="i-terminal" viewBox="0 0 24 24"><rect x="3" y="4" width="18" height="16" rx="2"/><path d="m7 9 3 3-3 3M13 15h4"/></symbol>
<symbol id="i-database" viewBox="0 0 24 24"><ellipse cx="12" cy="5.5" rx="8" ry="2.5"/><path d="M4 5.5v13c0 1.4 3.6 2.5 8 2.5s8-1.1 8-2.5v-13"/><path d="M4 12c0 1.4 3.6 2.5 8 2.5s8-1.1 8-2.5"/></symbol>
<symbol id="i-server" viewBox="0 0 24 24"><rect x="3" y="4" width="18" height="7" rx="1.5"/><rect x="3" y="13" width="18" height="7" rx="1.5"/><path d="M7 7.5h.01M7 16.5h.01"/></symbol>
<symbol id="i-cloud" viewBox="0 0 24 24"><path d="M7 19h10.5a4.5 4.5 0 0 0 .4-9A6 6 0 0 0 6.2 9.2 5 5 0 0 0 7 19z"/></symbol>
<symbol id="i-cpu" viewBox="0 0 24 24"><rect x="6" y="6" width="12" height="12" rx="1.5"/><rect x="9.5" y="9.5" width="5" height="5"/><path d="M9 2v4M15 2v4M9 18v4M15 18v4M2 9h4M2 15h4M18 9h4M18 15h4"/></symbol>
<symbol id="i-git-branch" viewBox="0 0 24 24"><circle cx="6" cy="5" r="2"/><circle cx="6" cy="19" r="2"/><circle cx="18" cy="7" r="2"/><path d="M6 7v10"/><path d="M18 9c0 4-4 5-8 5.5-2 .3-4 1.2-4 3.5"/></symbol>
<symbol id="i-plug" viewBox="0 0 24 24"><path d="M9 2v5M15 2v5"/><path d="M6 7h12v4a6 6 0 0 1-12 0V7z"/><path d="M12 17v5"/></symbol>
<symbol id="i-link" viewBox="0 0 24 24"><path d="M10 14a4.5 4.5 0 0 0 6.4 0l3-3a4.5 4.5 0 0 0-6.4-6.4l-1 1"/><path d="M14 10a4.5 4.5 0 0 0-6.4 0l-3 3a4.5 4.5 0 0 0 6.4 6.4l1-1"/></symbol>
<symbol id="i-network" viewBox="0 0 24 24"><circle cx="12" cy="5" r="2.5"/><circle cx="5" cy="19" r="2.5"/><circle cx="19" cy="19" r="2.5"/><path d="M10.8 7.2 6.2 16.8M13.2 7.2l4.6 9.6M7.5 19h9"/></symbol>
<symbol id="i-box" viewBox="0 0 24 24"><path d="M21 8 12 3 3 8v8l9 5 9-5V8z"/><path d="m3 8 9 5 9-5M12 13v8"/></symbol>
<symbol id="i-lock" viewBox="0 0 24 24"><rect x="4" y="11" width="16" height="10" rx="2"/><path d="M8 11V7a4 4 0 0 1 8 0v4"/></symbol>
<symbol id="i-key" viewBox="0 0 24 24"><circle cx="7.5" cy="15.5" r="4.5"/><path d="M10.7 12.3 20 3M16.5 6.5l3 3M14 9l2 2"/></symbol>
<symbol id="i-shield" viewBox="0 0 24 24"><path d="M12 3 4 6v6c0 4.5 3.4 8 8 9 4.6-1 8-4.5 8-9V6l-8-3z"/></symbol>
<symbol id="i-shield-check" viewBox="0 0 24 24"><path d="M12 3 4 6v6c0 4.5 3.4 8 8 9 4.6-1 8-4.5 8-9V6l-8-3z"/><path d="m9 12 2 2 4-4"/></symbol>
<symbol id="i-bug" viewBox="0 0 24 24"><rect x="7" y="7" width="10" height="13" rx="5"/><path d="M12 11v9M7 12H3M21 12h-4M7 17H4M20 17h-3M8.5 7.5 6 4.5M15.5 7.5 18 4.5"/></symbol>
<symbol id="i-flask" viewBox="0 0 24 24"><path d="M9 3h6M10 3v6l-5.5 9.5A1.7 1.7 0 0 0 6 21h12a1.7 1.7 0 0 0 1.5-2.5L14 9V3"/><path d="M7 15h10"/></symbol>
<symbol id="i-zap" viewBox="0 0 24 24"><path d="M13 2 4 14h7l-1 8 9-12h-7l1-8z"/></symbol>
<symbol id="i-sparkles" viewBox="0 0 24 24"><path d="m11 3 1.8 5.2L18 10l-5.2 1.8L11 17l-1.8-5.2L4 10l5.2-1.8L11 3z"/><path d="m18.5 15 .8 2.2 2.2.8-2.2.8-.8 2.2-.8-2.2-2.2-.8 2.2-.8.8-2.2z"/></symbol>
<symbol id="i-bot" viewBox="0 0 24 24"><rect x="4" y="8" width="16" height="12" rx="2"/><path d="M12 8V4M9.5 4h5M9 13v2M15 13v2M2 13v3M22 13v3"/></symbol>
<symbol id="i-monitor" viewBox="0 0 24 24"><rect x="2" y="4" width="20" height="13" rx="2"/><path d="M8 21h8M12 17v4"/></symbol>
<symbol id="i-presentation" viewBox="0 0 24 24"><path d="M2 3h20"/><path d="M21 3v11a2 2 0 0 1-2 2H5a2 2 0 0 1-2-2V3"/><path d="m7 21 5-5 5 5"/></symbol>
<symbol id="i-smartphone" viewBox="0 0 24 24"><rect x="6" y="2" width="12" height="20" rx="2"/><path d="M11 18h2"/></symbol>
</svg>
